<mxfile host="65bd71144e" pages="3">
    <diagram id="G97i-W1D9DYcRq47s2UK" name="Администратор">
        <mxGraphModel dx="1051" dy="634" grid="1" gridSize="10" guides="1" tooltips="1" connect="1" arrows="1" fold="1" page="1" pageScale="1" pageWidth="827" pageHeight="1169" math="0" shadow="0">
            <root>
                <mxCell id="0"/>
                <mxCell id="1" parent="0"/>
                <mxCell id="RxLexrAR9fo_K17NFaEO-41" style="edgeStyle=elbowEdgeStyle;rounded=1;orthogonalLoop=1;jettySize=auto;html=1;dashed=1;" parent="1" target="RxLexrAR9fo_K17NFaEO-11" edge="1">
                    <mxGeometry relative="1" as="geometry">
                        <Array as="points">
                            <mxPoint x="260" y="320"/>
                        </Array>
                        <mxPoint x="225.99999999999977" y="595" as="sourcePoint"/>
                    </mxGeometry>
                </mxCell>
                <mxCell id="RxLexrAR9fo_K17NFaEO-40" style="edgeStyle=elbowEdgeStyle;rounded=1;orthogonalLoop=1;jettySize=auto;html=1;dashed=1;" parent="1" target="RxLexrAR9fo_K17NFaEO-11" edge="1">
                    <mxGeometry relative="1" as="geometry">
                        <Array as="points">
                            <mxPoint x="260" y="320"/>
                        </Array>
                        <mxPoint x="225.99999999999977" y="525" as="sourcePoint"/>
                    </mxGeometry>
                </mxCell>
                <mxCell id="RxLexrAR9fo_K17NFaEO-8" value="Зарегистрироваться" style="ellipse;whiteSpace=wrap;html=1;fontSize=14;" parent="1" vertex="1">
                    <mxGeometry x="60" y="10" width="166" height="50" as="geometry"/>
                </mxCell>
                <mxCell id="RxLexrAR9fo_K17NFaEO-9" style="edgeStyle=orthogonalEdgeStyle;rounded=0;orthogonalLoop=1;jettySize=auto;html=1;endArrow=classic;endFill=1;dashed=1;" parent="1" source="RxLexrAR9fo_K17NFaEO-11" target="RxLexrAR9fo_K17NFaEO-8" edge="1">
                    <mxGeometry relative="1" as="geometry"/>
                </mxCell>
                <mxCell id="RxLexrAR9fo_K17NFaEO-10" value="&amp;lt;&amp;lt;include&amp;gt;&amp;gt;" style="edgeLabel;html=1;align=center;verticalAlign=middle;resizable=0;points=[];" parent="RxLexrAR9fo_K17NFaEO-9" vertex="1" connectable="0">
                    <mxGeometry x="0.2728" y="3" relative="1" as="geometry">
                        <mxPoint y="9" as="offset"/>
                    </mxGeometry>
                </mxCell>
                <mxCell id="RxLexrAR9fo_K17NFaEO-11" value="Войти в систему" style="ellipse;whiteSpace=wrap;html=1;fontSize=14;" parent="1" vertex="1">
                    <mxGeometry x="60" y="110" width="166" height="50" as="geometry"/>
                </mxCell>
                <mxCell id="RxLexrAR9fo_K17NFaEO-12" value="Создать главу" style="ellipse;whiteSpace=wrap;html=1;fontSize=14;" parent="1" vertex="1">
                    <mxGeometry x="60" y="250" width="166" height="50" as="geometry"/>
                </mxCell>
                <mxCell id="RxLexrAR9fo_K17NFaEO-13" value="Изменить главу" style="ellipse;whiteSpace=wrap;html=1;fontSize=14;" parent="1" vertex="1">
                    <mxGeometry x="60" y="310" width="166" height="50" as="geometry"/>
                </mxCell>
                <mxCell id="RxLexrAR9fo_K17NFaEO-14" style="edgeStyle=elbowEdgeStyle;rounded=1;orthogonalLoop=1;jettySize=auto;html=1;dashed=1;endArrow=classic;endFill=1;" parent="1" source="RxLexrAR9fo_K17NFaEO-15" target="RxLexrAR9fo_K17NFaEO-11" edge="1">
                    <mxGeometry relative="1" as="geometry">
                        <Array as="points">
                            <mxPoint x="260" y="300"/>
                        </Array>
                    </mxGeometry>
                </mxCell>
                <mxCell id="RxLexrAR9fo_K17NFaEO-15" value="Удалить главу" style="ellipse;whiteSpace=wrap;html=1;fontSize=14;" parent="1" vertex="1">
                    <mxGeometry x="60" y="370" width="166" height="50" as="geometry"/>
                </mxCell>
                <mxCell id="RxLexrAR9fo_K17NFaEO-16" style="edgeStyle=elbowEdgeStyle;rounded=1;orthogonalLoop=1;jettySize=auto;html=1;dashed=1;endArrow=classic;endFill=1;" parent="1" source="RxLexrAR9fo_K17NFaEO-17" target="RxLexrAR9fo_K17NFaEO-11" edge="1">
                    <mxGeometry relative="1" as="geometry">
                        <Array as="points">
                            <mxPoint x="580" y="135"/>
                        </Array>
                    </mxGeometry>
                </mxCell>
                <mxCell id="RxLexrAR9fo_K17NFaEO-17" value="Добавить комментарий" style="ellipse;whiteSpace=wrap;html=1;fontSize=14;" parent="1" vertex="1">
                    <mxGeometry x="620" y="100" width="166" height="50" as="geometry"/>
                </mxCell>
                <mxCell id="RxLexrAR9fo_K17NFaEO-18" style="edgeStyle=elbowEdgeStyle;rounded=1;orthogonalLoop=1;jettySize=auto;html=1;dashed=1;endArrow=classic;endFill=1;" parent="1" source="RxLexrAR9fo_K17NFaEO-19" target="RxLexrAR9fo_K17NFaEO-11" edge="1">
                    <mxGeometry relative="1" as="geometry">
                        <Array as="points">
                            <mxPoint x="580" y="200"/>
                        </Array>
                    </mxGeometry>
                </mxCell>
                <mxCell id="RxLexrAR9fo_K17NFaEO-19" value="Удалить комментарий" style="ellipse;whiteSpace=wrap;html=1;fontSize=14;" parent="1" vertex="1">
                    <mxGeometry x="620" y="170" width="166" height="50" as="geometry"/>
                </mxCell>
                <mxCell id="RxLexrAR9fo_K17NFaEO-20" style="edgeStyle=elbowEdgeStyle;rounded=1;orthogonalLoop=1;jettySize=auto;html=1;dashed=1;endArrow=classic;endFill=1;" parent="1" target="RxLexrAR9fo_K17NFaEO-11" edge="1">
                    <mxGeometry relative="1" as="geometry">
                        <Array as="points">
                            <mxPoint x="260" y="360"/>
                        </Array>
                        <mxPoint x="225.99999999999977" y="675" as="sourcePoint"/>
                    </mxGeometry>
                </mxCell>
                <mxCell id="RxLexrAR9fo_K17NFaEO-22" style="edgeStyle=elbowEdgeStyle;rounded=1;orthogonalLoop=1;jettySize=auto;html=1;endArrow=classic;endFill=1;dashed=1;" parent="1" source="RxLexrAR9fo_K17NFaEO-12" target="RxLexrAR9fo_K17NFaEO-11" edge="1">
                    <mxGeometry relative="1" as="geometry">
                        <mxPoint x="-177" y="100" as="sourcePoint"/>
                        <mxPoint x="-177" y="50" as="targetPoint"/>
                        <Array as="points">
                            <mxPoint x="260" y="210"/>
                        </Array>
                    </mxGeometry>
                </mxCell>
                <mxCell id="RxLexrAR9fo_K17NFaEO-23" value="&amp;lt;&amp;lt;include&amp;gt;&amp;gt;" style="edgeLabel;html=1;align=center;verticalAlign=middle;resizable=0;points=[];" parent="RxLexrAR9fo_K17NFaEO-22" vertex="1" connectable="0">
                    <mxGeometry x="0.2728" y="3" relative="1" as="geometry">
                        <mxPoint x="43" y="-47" as="offset"/>
                    </mxGeometry>
                </mxCell>
                <mxCell id="RxLexrAR9fo_K17NFaEO-24" style="edgeStyle=elbowEdgeStyle;rounded=1;orthogonalLoop=1;jettySize=auto;html=1;endArrow=classic;endFill=1;dashed=1;" parent="1" source="RxLexrAR9fo_K17NFaEO-13" target="RxLexrAR9fo_K17NFaEO-11" edge="1">
                    <mxGeometry relative="1" as="geometry">
                        <mxPoint x="-94" y="205" as="sourcePoint"/>
                        <mxPoint x="-94" y="125" as="targetPoint"/>
                        <Array as="points">
                            <mxPoint x="260" y="250"/>
                        </Array>
                    </mxGeometry>
                </mxCell>
                <mxCell id="RxLexrAR9fo_K17NFaEO-25" style="edgeStyle=elbowEdgeStyle;rounded=1;orthogonalLoop=1;jettySize=auto;html=1;dashed=1;" parent="1" source="RxLexrAR9fo_K17NFaEO-26" target="RxLexrAR9fo_K17NFaEO-11" edge="1">
                    <mxGeometry relative="1" as="geometry">
                        <Array as="points">
                            <mxPoint x="580" y="230"/>
                        </Array>
                    </mxGeometry>
                </mxCell>
                <mxCell id="RxLexrAR9fo_K17NFaEO-26" value="Удалить любого пользователя" style="ellipse;whiteSpace=wrap;html=1;fontSize=14;" parent="1" vertex="1">
                    <mxGeometry x="620" y="240" width="166" height="50" as="geometry"/>
                </mxCell>
                <mxCell id="RxLexrAR9fo_K17NFaEO-27" style="edgeStyle=elbowEdgeStyle;rounded=1;orthogonalLoop=1;jettySize=auto;html=1;dashed=1;exitX=0;exitY=0.5;exitDx=0;exitDy=0;" parent="1" source="shaau-iIlV5mejq1RMoS-7" target="RxLexrAR9fo_K17NFaEO-11" edge="1">
                    <mxGeometry relative="1" as="geometry">
                        <Array as="points">
                            <mxPoint x="580" y="330"/>
                            <mxPoint x="580" y="280"/>
                        </Array>
                    </mxGeometry>
                </mxCell>
                <mxCell id="RxLexrAR9fo_K17NFaEO-28" value="Удалить пользователей" style="ellipse;whiteSpace=wrap;html=1;fontSize=14;" parent="1" vertex="1">
                    <mxGeometry x="620" y="310" width="166" height="50" as="geometry"/>
                </mxCell>
                <mxCell id="RxLexrAR9fo_K17NFaEO-29" value="Изменить своего пользователя" style="ellipse;whiteSpace=wrap;html=1;fontSize=14;" parent="1" vertex="1">
                    <mxGeometry x="60" y="180" width="166" height="50" as="geometry"/>
                </mxCell>
                <mxCell id="RxLexrAR9fo_K17NFaEO-30" value="Изменить комментарий" style="ellipse;whiteSpace=wrap;html=1;fontSize=14;" parent="1" vertex="1">
                    <mxGeometry x="620" y="30" width="166" height="50" as="geometry"/>
                </mxCell>
                <mxCell id="RxLexrAR9fo_K17NFaEO-31" style="edgeStyle=elbowEdgeStyle;rounded=1;orthogonalLoop=1;jettySize=auto;html=1;dashed=1;endArrow=classic;endFill=1;" parent="1" source="RxLexrAR9fo_K17NFaEO-30" target="RxLexrAR9fo_K17NFaEO-11" edge="1">
                    <mxGeometry relative="1" as="geometry">
                        <Array as="points">
                            <mxPoint x="580" y="105"/>
                        </Array>
                    </mxGeometry>
                </mxCell>
                <mxCell id="RxLexrAR9fo_K17NFaEO-37" style="edgeStyle=elbowEdgeStyle;rounded=1;orthogonalLoop=1;jettySize=auto;html=1;dashed=1;" parent="1" source="RxLexrAR9fo_K17NFaEO-32" target="RxLexrAR9fo_K17NFaEO-11" edge="1">
                    <mxGeometry relative="1" as="geometry">
                        <Array as="points">
                            <mxPoint x="260" y="250"/>
                            <mxPoint x="580" y="90"/>
                        </Array>
                    </mxGeometry>
                </mxCell>
                <mxCell id="RxLexrAR9fo_K17NFaEO-32" value="Получить все главы" style="ellipse;whiteSpace=wrap;html=1;fontSize=14;" parent="1" vertex="1">
                    <mxGeometry x="60" y="430" width="166" height="50" as="geometry"/>
                </mxCell>
                <mxCell id="RxLexrAR9fo_K17NFaEO-42" style="rounded=1;orthogonalLoop=1;jettySize=auto;html=1;" parent="1" source="RxLexrAR9fo_K17NFaEO-35" target="RxLexrAR9fo_K17NFaEO-30" edge="1">
                    <mxGeometry relative="1" as="geometry">
                        <mxPoint x="520" y="200" as="targetPoint"/>
                    </mxGeometry>
                </mxCell>
                <mxCell id="RxLexrAR9fo_K17NFaEO-43" style="edgeStyle=none;rounded=1;orthogonalLoop=1;jettySize=auto;html=1;" parent="1" source="RxLexrAR9fo_K17NFaEO-35" target="RxLexrAR9fo_K17NFaEO-17" edge="1">
                    <mxGeometry relative="1" as="geometry"/>
                </mxCell>
                <mxCell id="RxLexrAR9fo_K17NFaEO-44" style="edgeStyle=none;rounded=1;orthogonalLoop=1;jettySize=auto;html=1;" parent="1" source="RxLexrAR9fo_K17NFaEO-35" target="RxLexrAR9fo_K17NFaEO-19" edge="1">
                    <mxGeometry relative="1" as="geometry"/>
                </mxCell>
                <mxCell id="RxLexrAR9fo_K17NFaEO-45" style="edgeStyle=none;rounded=1;orthogonalLoop=1;jettySize=auto;html=1;" parent="1" source="RxLexrAR9fo_K17NFaEO-35" target="RxLexrAR9fo_K17NFaEO-26" edge="1">
                    <mxGeometry relative="1" as="geometry"/>
                </mxCell>
                <mxCell id="RxLexrAR9fo_K17NFaEO-46" style="edgeStyle=none;rounded=1;orthogonalLoop=1;jettySize=auto;html=1;" parent="1" source="RxLexrAR9fo_K17NFaEO-35" target="RxLexrAR9fo_K17NFaEO-28" edge="1">
                    <mxGeometry relative="1" as="geometry"/>
                </mxCell>
                <mxCell id="RxLexrAR9fo_K17NFaEO-47" style="edgeStyle=none;rounded=1;orthogonalLoop=1;jettySize=auto;html=1;" parent="1" source="RxLexrAR9fo_K17NFaEO-35" target="RxLexrAR9fo_K17NFaEO-8" edge="1">
                    <mxGeometry relative="1" as="geometry"/>
                </mxCell>
                <mxCell id="RxLexrAR9fo_K17NFaEO-48" style="edgeStyle=none;rounded=1;orthogonalLoop=1;jettySize=auto;html=1;" parent="1" source="RxLexrAR9fo_K17NFaEO-35" target="RxLexrAR9fo_K17NFaEO-11" edge="1">
                    <mxGeometry relative="1" as="geometry"/>
                </mxCell>
                <mxCell id="RxLexrAR9fo_K17NFaEO-49" style="edgeStyle=none;rounded=1;orthogonalLoop=1;jettySize=auto;html=1;" parent="1" source="RxLexrAR9fo_K17NFaEO-35" target="RxLexrAR9fo_K17NFaEO-29" edge="1">
                    <mxGeometry relative="1" as="geometry"/>
                </mxCell>
                <mxCell id="RxLexrAR9fo_K17NFaEO-50" style="edgeStyle=none;rounded=1;orthogonalLoop=1;jettySize=auto;html=1;" parent="1" source="RxLexrAR9fo_K17NFaEO-35" target="RxLexrAR9fo_K17NFaEO-12" edge="1">
                    <mxGeometry relative="1" as="geometry"/>
                </mxCell>
                <mxCell id="RxLexrAR9fo_K17NFaEO-51" style="edgeStyle=none;rounded=1;orthogonalLoop=1;jettySize=auto;html=1;" parent="1" source="RxLexrAR9fo_K17NFaEO-35" target="RxLexrAR9fo_K17NFaEO-13" edge="1">
                    <mxGeometry relative="1" as="geometry"/>
                </mxCell>
                <mxCell id="RxLexrAR9fo_K17NFaEO-52" style="edgeStyle=none;rounded=1;orthogonalLoop=1;jettySize=auto;html=1;" parent="1" source="RxLexrAR9fo_K17NFaEO-35" target="RxLexrAR9fo_K17NFaEO-15" edge="1">
                    <mxGeometry relative="1" as="geometry"/>
                </mxCell>
                <mxCell id="RxLexrAR9fo_K17NFaEO-53" style="edgeStyle=none;rounded=1;orthogonalLoop=1;jettySize=auto;html=1;" parent="1" source="RxLexrAR9fo_K17NFaEO-35" target="RxLexrAR9fo_K17NFaEO-32" edge="1">
                    <mxGeometry relative="1" as="geometry"/>
                </mxCell>
                <mxCell id="RxLexrAR9fo_K17NFaEO-54" style="edgeStyle=none;rounded=1;orthogonalLoop=1;jettySize=auto;html=1;" parent="1" source="RxLexrAR9fo_K17NFaEO-35" edge="1">
                    <mxGeometry relative="1" as="geometry">
                        <mxPoint x="178.07827131092358" y="502.3424395423606" as="targetPoint"/>
                    </mxGeometry>
                </mxCell>
                <mxCell id="RxLexrAR9fo_K17NFaEO-55" style="edgeStyle=none;rounded=1;orthogonalLoop=1;jettySize=auto;html=1;" parent="1" source="RxLexrAR9fo_K17NFaEO-35" edge="1">
                    <mxGeometry relative="1" as="geometry">
                        <mxPoint x="169.27020929632909" y="571.2852585340529" as="targetPoint"/>
                    </mxGeometry>
                </mxCell>
                <mxCell id="RxLexrAR9fo_K17NFaEO-56" style="edgeStyle=none;rounded=1;orthogonalLoop=1;jettySize=auto;html=1;" parent="1" source="RxLexrAR9fo_K17NFaEO-35" edge="1">
                    <mxGeometry relative="1" as="geometry">
                        <mxPoint x="170.54892212052027" y="641.9841711551735" as="targetPoint"/>
                    </mxGeometry>
                </mxCell>
                <mxCell id="RxLexrAR9fo_K17NFaEO-35" value="Администратор" style="shape=umlActor;verticalLabelPosition=bottom;verticalAlign=top;html=1;outlineConnect=0;" parent="1" vertex="1">
                    <mxGeometry x="399" y="320" width="30" height="60" as="geometry"/>
                </mxCell>
                <mxCell id="RxLexrAR9fo_K17NFaEO-39" value="&amp;lt;&amp;lt;include&amp;gt;&amp;gt;" style="edgeLabel;html=1;align=center;verticalAlign=middle;resizable=0;points=[];" parent="1" vertex="1" connectable="0">
                    <mxGeometry x="260" y="160.00487804878043" as="geometry">
                        <mxPoint x="2" y="-1" as="offset"/>
                    </mxGeometry>
                </mxCell>
                <mxCell id="shaau-iIlV5mejq1RMoS-1" value="Создать части" style="ellipse;whiteSpace=wrap;html=1;fontSize=14;" parent="1" vertex="1">
                    <mxGeometry x="60" y="500" width="166" height="50" as="geometry"/>
                </mxCell>
                <mxCell id="shaau-iIlV5mejq1RMoS-2" value="Изменить части" style="ellipse;whiteSpace=wrap;html=1;fontSize=14;" parent="1" vertex="1">
                    <mxGeometry x="60" y="570" width="166" height="50" as="geometry"/>
                </mxCell>
                <mxCell id="shaau-iIlV5mejq1RMoS-3" value="Удалить части" style="ellipse;whiteSpace=wrap;html=1;fontSize=14;" parent="1" vertex="1">
                    <mxGeometry x="60" y="640" width="166" height="50" as="geometry"/>
                </mxCell>
                <mxCell id="shaau-iIlV5mejq1RMoS-4" value="Получить все части" style="ellipse;whiteSpace=wrap;html=1;fontSize=14;" parent="1" vertex="1">
                    <mxGeometry x="60" y="700" width="166" height="50" as="geometry"/>
                </mxCell>
                <mxCell id="shaau-iIlV5mejq1RMoS-5" style="edgeStyle=elbowEdgeStyle;rounded=1;orthogonalLoop=1;jettySize=auto;html=1;dashed=1;endArrow=classic;endFill=1;" parent="1" edge="1">
                    <mxGeometry relative="1" as="geometry">
                        <Array as="points">
                            <mxPoint x="260" y="415"/>
                        </Array>
                        <mxPoint x="225.99999999999977" y="730" as="sourcePoint"/>
                        <mxPoint x="226" y="190" as="targetPoint"/>
                    </mxGeometry>
                </mxCell>
                <mxCell id="shaau-iIlV5mejq1RMoS-6" style="edgeStyle=none;rounded=1;orthogonalLoop=1;jettySize=auto;html=1;exitX=0;exitY=1;exitDx=0;exitDy=0;exitPerimeter=0;" parent="1" source="RxLexrAR9fo_K17NFaEO-35" edge="1">
                    <mxGeometry relative="1" as="geometry">
                        <mxPoint x="399" y="426.02" as="sourcePoint"/>
                        <mxPoint x="170.54892212052027" y="700.0041711551735" as="targetPoint"/>
                    </mxGeometry>
                </mxCell>
                <mxCell id="shaau-iIlV5mejq1RMoS-7" value="Дать премиум пользователю" style="ellipse;whiteSpace=wrap;html=1;fontSize=14;" parent="1" vertex="1">
                    <mxGeometry x="620" y="380" width="166" height="50" as="geometry"/>
                </mxCell>
                <mxCell id="shaau-iIlV5mejq1RMoS-8" style="edgeStyle=none;rounded=1;orthogonalLoop=1;jettySize=auto;html=1;entryX=0;entryY=0.5;entryDx=0;entryDy=0;" parent="1" target="shaau-iIlV5mejq1RMoS-7" edge="1">
                    <mxGeometry relative="1" as="geometry">
                        <mxPoint x="430" y="360" as="sourcePoint"/>
                        <mxPoint x="631" y="349" as="targetPoint"/>
                    </mxGeometry>
                </mxCell>
                <mxCell id="GU3GA-6iXD39knGtAeZU-2" style="edgeStyle=elbowEdgeStyle;rounded=1;orthogonalLoop=1;jettySize=auto;html=1;dashed=1;entryX=1;entryY=0.5;entryDx=0;entryDy=0;" parent="1" target="RxLexrAR9fo_K17NFaEO-11" edge="1">
                    <mxGeometry relative="1" as="geometry">
                        <Array as="points">
                            <mxPoint x="580" y="285"/>
                        </Array>
                        <mxPoint x="620" y="340" as="sourcePoint"/>
                        <mxPoint x="226" y="140" as="targetPoint"/>
                    </mxGeometry>
                </mxCell>
            </root>
        </mxGraphModel>
    </diagram>
    <diagram id="lyqg9mUECsdkwfx_HGhm" name="Премиум">
        <mxGraphModel dx="-603" dy="634" grid="1" gridSize="10" guides="1" tooltips="1" connect="1" arrows="1" fold="1" page="1" pageScale="1" pageWidth="827" pageHeight="1169" math="0" shadow="0">
            <root>
                <mxCell id="0"/>
                <mxCell id="1" parent="0"/>
                <mxCell id="iOQdm_HkCMZLgdiHDmDZ-31" style="edgeStyle=elbowEdgeStyle;rounded=1;orthogonalLoop=1;jettySize=auto;html=1;dashed=1;" parent="1" source="iOQdm_HkCMZLgdiHDmDZ-32" target="iOQdm_HkCMZLgdiHDmDZ-36" edge="1">
                    <mxGeometry relative="1" as="geometry">
                        <Array as="points">
                            <mxPoint x="1915" y="330"/>
                        </Array>
                    </mxGeometry>
                </mxCell>
                <mxCell id="iOQdm_HkCMZLgdiHDmDZ-32" value="Читать премиум главы" style="ellipse;whiteSpace=wrap;html=1;fontSize=14;" parent="1" vertex="1">
                    <mxGeometry x="1715" y="510" width="166" height="50" as="geometry"/>
                </mxCell>
                <mxCell id="iOQdm_HkCMZLgdiHDmDZ-33" value="Зарегистрироваться" style="ellipse;whiteSpace=wrap;html=1;fontSize=14;" parent="1" vertex="1">
                    <mxGeometry x="1715" y="20" width="166" height="50" as="geometry"/>
                </mxCell>
                <mxCell id="iOQdm_HkCMZLgdiHDmDZ-34" style="edgeStyle=orthogonalEdgeStyle;rounded=0;orthogonalLoop=1;jettySize=auto;html=1;endArrow=classic;endFill=1;dashed=1;" parent="1" source="iOQdm_HkCMZLgdiHDmDZ-36" target="iOQdm_HkCMZLgdiHDmDZ-33" edge="1">
                    <mxGeometry relative="1" as="geometry"/>
                </mxCell>
                <mxCell id="iOQdm_HkCMZLgdiHDmDZ-35" value="&amp;lt;&amp;lt;include&amp;gt;&amp;gt;" style="edgeLabel;html=1;align=center;verticalAlign=middle;resizable=0;points=[];" parent="iOQdm_HkCMZLgdiHDmDZ-34" vertex="1" connectable="0">
                    <mxGeometry x="0.2728" y="3" relative="1" as="geometry">
                        <mxPoint y="9" as="offset"/>
                    </mxGeometry>
                </mxCell>
                <mxCell id="iOQdm_HkCMZLgdiHDmDZ-36" value="Войти в систему" style="ellipse;whiteSpace=wrap;html=1;fontSize=14;" parent="1" vertex="1">
                    <mxGeometry x="1715" y="120" width="166" height="50" as="geometry"/>
                </mxCell>
                <mxCell id="iOQdm_HkCMZLgdiHDmDZ-37" value="Создать комментарий" style="ellipse;whiteSpace=wrap;html=1;fontSize=14;" parent="1" vertex="1">
                    <mxGeometry x="1715" y="260" width="166" height="50" as="geometry"/>
                </mxCell>
                <mxCell id="iOQdm_HkCMZLgdiHDmDZ-38" value="Изменить комментарий" style="ellipse;whiteSpace=wrap;html=1;fontSize=14;" parent="1" vertex="1">
                    <mxGeometry x="1715" y="320" width="166" height="50" as="geometry"/>
                </mxCell>
                <mxCell id="iOQdm_HkCMZLgdiHDmDZ-39" style="edgeStyle=elbowEdgeStyle;rounded=1;orthogonalLoop=1;jettySize=auto;html=1;dashed=1;endArrow=classic;endFill=1;" parent="1" source="iOQdm_HkCMZLgdiHDmDZ-40" target="iOQdm_HkCMZLgdiHDmDZ-36" edge="1">
                    <mxGeometry relative="1" as="geometry">
                        <Array as="points">
                            <mxPoint x="1915" y="310"/>
                        </Array>
                    </mxGeometry>
                </mxCell>
                <mxCell id="iOQdm_HkCMZLgdiHDmDZ-40" value="Удалить комментарий" style="ellipse;whiteSpace=wrap;html=1;fontSize=14;" parent="1" vertex="1">
                    <mxGeometry x="1715" y="380" width="166" height="50" as="geometry"/>
                </mxCell>
                <mxCell id="iOQdm_HkCMZLgdiHDmDZ-41" style="edgeStyle=elbowEdgeStyle;rounded=1;orthogonalLoop=1;jettySize=auto;html=1;endArrow=classic;endFill=1;dashed=1;" parent="1" source="iOQdm_HkCMZLgdiHDmDZ-37" target="iOQdm_HkCMZLgdiHDmDZ-36" edge="1">
                    <mxGeometry relative="1" as="geometry">
                        <mxPoint x="1478" y="110" as="sourcePoint"/>
                        <mxPoint x="1478" y="60" as="targetPoint"/>
                        <Array as="points">
                            <mxPoint x="1915" y="220"/>
                        </Array>
                    </mxGeometry>
                </mxCell>
                <mxCell id="iOQdm_HkCMZLgdiHDmDZ-42" style="edgeStyle=elbowEdgeStyle;rounded=1;orthogonalLoop=1;jettySize=auto;html=1;endArrow=classic;endFill=1;dashed=1;" parent="1" source="iOQdm_HkCMZLgdiHDmDZ-38" target="iOQdm_HkCMZLgdiHDmDZ-36" edge="1">
                    <mxGeometry relative="1" as="geometry">
                        <mxPoint x="1561" y="215" as="sourcePoint"/>
                        <mxPoint x="1561" y="135" as="targetPoint"/>
                        <Array as="points">
                            <mxPoint x="1915" y="260"/>
                        </Array>
                    </mxGeometry>
                </mxCell>
                <mxCell id="iOQdm_HkCMZLgdiHDmDZ-43" value="Изменить своего пользователя" style="ellipse;whiteSpace=wrap;html=1;fontSize=14;" parent="1" vertex="1">
                    <mxGeometry x="1715" y="190" width="166" height="50" as="geometry"/>
                </mxCell>
                <mxCell id="iOQdm_HkCMZLgdiHDmDZ-44" style="edgeStyle=elbowEdgeStyle;rounded=1;orthogonalLoop=1;jettySize=auto;html=1;dashed=1;" parent="1" source="iOQdm_HkCMZLgdiHDmDZ-45" target="iOQdm_HkCMZLgdiHDmDZ-36" edge="1">
                    <mxGeometry relative="1" as="geometry">
                        <Array as="points">
                            <mxPoint x="1915" y="260"/>
                            <mxPoint x="2235" y="100"/>
                        </Array>
                    </mxGeometry>
                </mxCell>
                <mxCell id="iOQdm_HkCMZLgdiHDmDZ-45" value="Читать бесплатные главы" style="ellipse;whiteSpace=wrap;html=1;fontSize=14;" parent="1" vertex="1">
                    <mxGeometry x="1715" y="440" width="166" height="50" as="geometry"/>
                </mxCell>
                <mxCell id="iOQdm_HkCMZLgdiHDmDZ-46" style="edgeStyle=none;rounded=1;orthogonalLoop=1;jettySize=auto;html=1;" parent="1" source="iOQdm_HkCMZLgdiHDmDZ-55" target="iOQdm_HkCMZLgdiHDmDZ-33" edge="1">
                    <mxGeometry relative="1" as="geometry"/>
                </mxCell>
                <mxCell id="iOQdm_HkCMZLgdiHDmDZ-47" style="edgeStyle=none;rounded=1;orthogonalLoop=1;jettySize=auto;html=1;" parent="1" source="iOQdm_HkCMZLgdiHDmDZ-55" target="iOQdm_HkCMZLgdiHDmDZ-36" edge="1">
                    <mxGeometry relative="1" as="geometry"/>
                </mxCell>
                <mxCell id="iOQdm_HkCMZLgdiHDmDZ-48" style="edgeStyle=none;rounded=1;orthogonalLoop=1;jettySize=auto;html=1;" parent="1" source="iOQdm_HkCMZLgdiHDmDZ-55" target="iOQdm_HkCMZLgdiHDmDZ-43" edge="1">
                    <mxGeometry relative="1" as="geometry"/>
                </mxCell>
                <mxCell id="iOQdm_HkCMZLgdiHDmDZ-49" style="edgeStyle=none;rounded=1;orthogonalLoop=1;jettySize=auto;html=1;" parent="1" source="iOQdm_HkCMZLgdiHDmDZ-55" target="iOQdm_HkCMZLgdiHDmDZ-37" edge="1">
                    <mxGeometry relative="1" as="geometry"/>
                </mxCell>
                <mxCell id="iOQdm_HkCMZLgdiHDmDZ-50" style="edgeStyle=none;rounded=1;orthogonalLoop=1;jettySize=auto;html=1;" parent="1" source="iOQdm_HkCMZLgdiHDmDZ-55" target="iOQdm_HkCMZLgdiHDmDZ-38" edge="1">
                    <mxGeometry relative="1" as="geometry"/>
                </mxCell>
                <mxCell id="iOQdm_HkCMZLgdiHDmDZ-51" style="edgeStyle=none;rounded=1;orthogonalLoop=1;jettySize=auto;html=1;" parent="1" source="iOQdm_HkCMZLgdiHDmDZ-55" target="iOQdm_HkCMZLgdiHDmDZ-40" edge="1">
                    <mxGeometry relative="1" as="geometry"/>
                </mxCell>
                <mxCell id="iOQdm_HkCMZLgdiHDmDZ-52" style="edgeStyle=none;rounded=1;orthogonalLoop=1;jettySize=auto;html=1;" parent="1" source="iOQdm_HkCMZLgdiHDmDZ-55" target="iOQdm_HkCMZLgdiHDmDZ-45" edge="1">
                    <mxGeometry relative="1" as="geometry"/>
                </mxCell>
                <mxCell id="iOQdm_HkCMZLgdiHDmDZ-53" style="edgeStyle=none;rounded=1;orthogonalLoop=1;jettySize=auto;html=1;" parent="1" source="iOQdm_HkCMZLgdiHDmDZ-55" target="iOQdm_HkCMZLgdiHDmDZ-32" edge="1">
                    <mxGeometry relative="1" as="geometry"/>
                </mxCell>
                <mxCell id="iOQdm_HkCMZLgdiHDmDZ-55" value="Премиум&lt;br&gt;пользователь" style="shape=umlActor;verticalLabelPosition=bottom;verticalAlign=top;html=1;outlineConnect=0;" parent="1" vertex="1">
                    <mxGeometry x="2054" y="330" width="31" height="60" as="geometry"/>
                </mxCell>
                <mxCell id="iOQdm_HkCMZLgdiHDmDZ-56" value="&amp;lt;&amp;lt;include&amp;gt;&amp;gt;" style="edgeLabel;html=1;align=center;verticalAlign=middle;resizable=0;points=[];" parent="1" vertex="1" connectable="0">
                    <mxGeometry x="1915" y="170.00487804878043" as="geometry">
                        <mxPoint x="2" y="-1" as="offset"/>
                    </mxGeometry>
                </mxCell>
            </root>
        </mxGraphModel>
    </diagram>
    <diagram id="v8O1ee1hcuBlyzNCkWyk" name="Простой">
        <mxGraphModel dx="-603" dy="634" grid="1" gridSize="10" guides="1" tooltips="1" connect="1" arrows="1" fold="1" page="1" pageScale="1" pageWidth="827" pageHeight="1169" math="0" shadow="0">
            <root>
                <mxCell id="0"/>
                <mxCell id="1" parent="0"/>
                <mxCell id="aNF8Hjy5MYYZBk_om-a_-5" value="Зарегистрироваться" style="ellipse;whiteSpace=wrap;html=1;fontSize=14;" parent="1" vertex="1">
                    <mxGeometry x="1705" y="10" width="166" height="50" as="geometry"/>
                </mxCell>
                <mxCell id="aNF8Hjy5MYYZBk_om-a_-6" style="edgeStyle=orthogonalEdgeStyle;rounded=0;orthogonalLoop=1;jettySize=auto;html=1;endArrow=classic;endFill=1;dashed=1;" parent="1" source="aNF8Hjy5MYYZBk_om-a_-8" target="aNF8Hjy5MYYZBk_om-a_-5" edge="1">
                    <mxGeometry relative="1" as="geometry"/>
                </mxCell>
                <mxCell id="aNF8Hjy5MYYZBk_om-a_-7" value="&amp;lt;&amp;lt;include&amp;gt;&amp;gt;" style="edgeLabel;html=1;align=center;verticalAlign=middle;resizable=0;points=[];" parent="aNF8Hjy5MYYZBk_om-a_-6" vertex="1" connectable="0">
                    <mxGeometry x="0.2728" y="3" relative="1" as="geometry">
                        <mxPoint y="9" as="offset"/>
                    </mxGeometry>
                </mxCell>
                <mxCell id="aNF8Hjy5MYYZBk_om-a_-8" value="Войти в систему" style="ellipse;whiteSpace=wrap;html=1;fontSize=14;" parent="1" vertex="1">
                    <mxGeometry x="1705" y="110" width="166" height="50" as="geometry"/>
                </mxCell>
                <mxCell id="aNF8Hjy5MYYZBk_om-a_-9" value="Создать комментарий" style="ellipse;whiteSpace=wrap;html=1;fontSize=14;" parent="1" vertex="1">
                    <mxGeometry x="1705" y="250" width="166" height="50" as="geometry"/>
                </mxCell>
                <mxCell id="aNF8Hjy5MYYZBk_om-a_-10" value="Изменить комментарий" style="ellipse;whiteSpace=wrap;html=1;fontSize=14;" parent="1" vertex="1">
                    <mxGeometry x="1705" y="310" width="166" height="50" as="geometry"/>
                </mxCell>
                <mxCell id="aNF8Hjy5MYYZBk_om-a_-11" style="edgeStyle=elbowEdgeStyle;rounded=1;orthogonalLoop=1;jettySize=auto;html=1;dashed=1;endArrow=classic;endFill=1;" parent="1" source="aNF8Hjy5MYYZBk_om-a_-12" target="aNF8Hjy5MYYZBk_om-a_-8" edge="1">
                    <mxGeometry relative="1" as="geometry">
                        <Array as="points">
                            <mxPoint x="1905" y="300"/>
                        </Array>
                    </mxGeometry>
                </mxCell>
                <mxCell id="aNF8Hjy5MYYZBk_om-a_-12" value="Удалить комментарий" style="ellipse;whiteSpace=wrap;html=1;fontSize=14;" parent="1" vertex="1">
                    <mxGeometry x="1705" y="370" width="166" height="50" as="geometry"/>
                </mxCell>
                <mxCell id="aNF8Hjy5MYYZBk_om-a_-13" style="edgeStyle=elbowEdgeStyle;rounded=1;orthogonalLoop=1;jettySize=auto;html=1;endArrow=classic;endFill=1;dashed=1;" parent="1" source="aNF8Hjy5MYYZBk_om-a_-9" target="aNF8Hjy5MYYZBk_om-a_-8" edge="1">
                    <mxGeometry relative="1" as="geometry">
                        <mxPoint x="1468" y="100" as="sourcePoint"/>
                        <mxPoint x="1468" y="50" as="targetPoint"/>
                        <Array as="points">
                            <mxPoint x="1905" y="210"/>
                        </Array>
                    </mxGeometry>
                </mxCell>
                <mxCell id="aNF8Hjy5MYYZBk_om-a_-14" style="edgeStyle=elbowEdgeStyle;rounded=1;orthogonalLoop=1;jettySize=auto;html=1;endArrow=classic;endFill=1;dashed=1;" parent="1" source="aNF8Hjy5MYYZBk_om-a_-10" target="aNF8Hjy5MYYZBk_om-a_-8" edge="1">
                    <mxGeometry relative="1" as="geometry">
                        <mxPoint x="1551" y="205" as="sourcePoint"/>
                        <mxPoint x="1551" y="125" as="targetPoint"/>
                        <Array as="points">
                            <mxPoint x="1905" y="250"/>
                        </Array>
                    </mxGeometry>
                </mxCell>
                <mxCell id="aNF8Hjy5MYYZBk_om-a_-15" value="Изменить своего пользователя" style="ellipse;whiteSpace=wrap;html=1;fontSize=14;" parent="1" vertex="1">
                    <mxGeometry x="1705" y="180" width="166" height="50" as="geometry"/>
                </mxCell>
                <mxCell id="aNF8Hjy5MYYZBk_om-a_-16" style="edgeStyle=elbowEdgeStyle;rounded=1;orthogonalLoop=1;jettySize=auto;html=1;dashed=1;" parent="1" source="aNF8Hjy5MYYZBk_om-a_-17" target="aNF8Hjy5MYYZBk_om-a_-8" edge="1">
                    <mxGeometry relative="1" as="geometry">
                        <Array as="points">
                            <mxPoint x="1905" y="250"/>
                            <mxPoint x="2225" y="90"/>
                        </Array>
                    </mxGeometry>
                </mxCell>
                <mxCell id="aNF8Hjy5MYYZBk_om-a_-17" value="Читать бесплатные главы" style="ellipse;whiteSpace=wrap;html=1;fontSize=14;" parent="1" vertex="1">
                    <mxGeometry x="1705" y="430" width="166" height="50" as="geometry"/>
                </mxCell>
                <mxCell id="aNF8Hjy5MYYZBk_om-a_-18" style="edgeStyle=none;rounded=1;orthogonalLoop=1;jettySize=auto;html=1;" parent="1" source="aNF8Hjy5MYYZBk_om-a_-27" target="aNF8Hjy5MYYZBk_om-a_-5" edge="1">
                    <mxGeometry relative="1" as="geometry"/>
                </mxCell>
                <mxCell id="aNF8Hjy5MYYZBk_om-a_-19" style="edgeStyle=none;rounded=1;orthogonalLoop=1;jettySize=auto;html=1;" parent="1" source="aNF8Hjy5MYYZBk_om-a_-27" target="aNF8Hjy5MYYZBk_om-a_-8" edge="1">
                    <mxGeometry relative="1" as="geometry"/>
                </mxCell>
                <mxCell id="aNF8Hjy5MYYZBk_om-a_-20" style="edgeStyle=none;rounded=1;orthogonalLoop=1;jettySize=auto;html=1;" parent="1" source="aNF8Hjy5MYYZBk_om-a_-27" target="aNF8Hjy5MYYZBk_om-a_-15" edge="1">
                    <mxGeometry relative="1" as="geometry"/>
                </mxCell>
                <mxCell id="aNF8Hjy5MYYZBk_om-a_-21" style="edgeStyle=none;rounded=1;orthogonalLoop=1;jettySize=auto;html=1;" parent="1" source="aNF8Hjy5MYYZBk_om-a_-27" target="aNF8Hjy5MYYZBk_om-a_-9" edge="1">
                    <mxGeometry relative="1" as="geometry"/>
                </mxCell>
                <mxCell id="aNF8Hjy5MYYZBk_om-a_-22" style="edgeStyle=none;rounded=1;orthogonalLoop=1;jettySize=auto;html=1;" parent="1" source="aNF8Hjy5MYYZBk_om-a_-27" target="aNF8Hjy5MYYZBk_om-a_-10" edge="1">
                    <mxGeometry relative="1" as="geometry"/>
                </mxCell>
                <mxCell id="aNF8Hjy5MYYZBk_om-a_-23" style="edgeStyle=none;rounded=1;orthogonalLoop=1;jettySize=auto;html=1;" parent="1" source="aNF8Hjy5MYYZBk_om-a_-27" target="aNF8Hjy5MYYZBk_om-a_-12" edge="1">
                    <mxGeometry relative="1" as="geometry"/>
                </mxCell>
                <mxCell id="aNF8Hjy5MYYZBk_om-a_-24" style="edgeStyle=none;rounded=1;orthogonalLoop=1;jettySize=auto;html=1;" parent="1" source="aNF8Hjy5MYYZBk_om-a_-27" target="aNF8Hjy5MYYZBk_om-a_-17" edge="1">
                    <mxGeometry relative="1" as="geometry"/>
                </mxCell>
                <mxCell id="aNF8Hjy5MYYZBk_om-a_-27" value="Простой&lt;br&gt;пользователь" style="shape=umlActor;verticalLabelPosition=bottom;verticalAlign=top;html=1;outlineConnect=0;" parent="1" vertex="1">
                    <mxGeometry x="2044" y="320" width="31" height="60" as="geometry"/>
                </mxCell>
                <mxCell id="aNF8Hjy5MYYZBk_om-a_-28" value="&amp;lt;&amp;lt;include&amp;gt;&amp;gt;" style="edgeLabel;html=1;align=center;verticalAlign=middle;resizable=0;points=[];" parent="1" vertex="1" connectable="0">
                    <mxGeometry x="1905" y="160.00487804878043" as="geometry">
                        <mxPoint x="2" y="-1" as="offset"/>
                    </mxGeometry>
                </mxCell>
            </root>
        </mxGraphModel>
    </diagram>
</mxfile>